<?xml version="1.0" encoding="utf-8"?>
<!-- Generator: Adobe Illustrator 17.0.0, SVG Export Plug-In . SVG Version: 6.00 Build 0)  -->
<!DOCTYPE svg PUBLIC "-//W3C//DTD SVG 1.1//EN" "http://www.w3.org/Graphics/SVG/1.1/DTD/svg11.dtd">
<svg version="1.1" xmlns="http://www.w3.org/2000/svg" xmlns:xlink="http://www.w3.org/1999/xlink" x="0px" y="0px"
	 width="632.968px" height="595.47px" viewBox="0 0 632.968 595.47" enable-background="new 0 0 632.968 595.47"
	 xml:space="preserve">
<g id="Layer_4">
</g>
<g id="Layer_3">
	<path display="none" fill="#FFE600" d="M332.959,57.071c-120.025,0-217.673,97.492-217.673,217.325s97.648,217.325,217.673,217.325
		s217.674-97.492,217.674-217.325S452.984,57.071,332.959,57.071z"/>
	<path display="none" d="M412.959-30.792c-120.025,0-217.674,97.492-217.674,217.325s97.648,217.325,217.674,217.325
		c120.026,0,217.674-97.492,217.674-217.325S532.984-30.792,412.959-30.792z"/>
	<path fill="#FFE600" d="M185.084,433.733c102.31,89.663,262.977,81.663,342.83-62.718c-58.52,32.381-156.52,65.714-260.516-23.038
		c-102.671-97.248-70.782-223.67-49.395-258.064C92.727,169.396,82.107,343.404,185.084,433.733z"/>
</g>
<g id="Layer_5" display="none">
	<g display="inline">
		<path fill="#FFE600" d="M276.959,655.866c0,25.117,18.9,45.666,42,45.666h0c23.1,0,42-20.55,42-45.666V524.155h-84V655.866z"/>
		<path fill="#FFE600" d="M360.959-113.938c0-25.116-18.9-45.666-42-45.666h0c-23.1,0-42,20.55-42,45.666V28.145h84V-113.938z"/>
		<path fill="#FFE600" d="M701.296,232.396H569.584v84h131.711c25.117,0,45.666-18.9,45.666-42v0
			C746.962,251.296,726.412,232.396,701.296,232.396z"/>
		<path fill="#FFE600" d="M73.574,232.396H-68.508c-25.117,0-45.666,18.9-45.666,42v0c0,23.1,20.55,42,45.666,42H73.574V232.396z"/>
		<path fill="#FFE600" d="M630.065,501.385l-97.698-88.335l-56.336,62.307l97.698,88.335c18.63,16.845,46.549,16.608,62.041-0.527h0
			C651.263,546.031,648.695,518.229,630.065,501.385z"/>
		<path fill="#FFE600" d="M2.722,47.407l105.39,95.291l56.336-62.307L59.059-14.9C40.428-31.745,12.51-31.508-2.983-14.374l0,0
			C-18.475,2.761-15.908,30.562,2.722,47.407z"/>
		<path fill="#FFE600" d="M637.111,57.476c19.156-16.245,22.604-43.951,7.663-61.569l0,0c-14.941-17.618-42.838-18.741-61.993-2.495
			l-100.452,85.19l54.331,64.064L637.111,57.476z"/>
		<path fill="#FFE600" d="M-4.323,491.315c-19.155,16.245-22.604,43.951-7.663,61.568v0c14.941,17.618,42.838,18.74,61.993,2.495
			l108.362-91.898l-54.33-64.064L-4.323,491.315z"/>
		<path fill="#FFE600" d="M197.959,66.208c-120.025,0-217.673,97.492-217.673,217.325s97.648,217.325,217.673,217.325
			s217.674-97.492,217.674-217.325S317.984,66.208,197.959,66.208z"/>
	</g>
</g>
<g id="Calque_4">
</g>
</svg>
