<?xml version="1.0" encoding="utf-8"?>
<!-- Generator: Adobe Illustrator 17.0.0, SVG Export Plug-In . SVG Version: 6.00 Build 0)  -->
<!DOCTYPE svg PUBLIC "-//W3C//DTD SVG 1.1//EN" "http://www.w3.org/Graphics/SVG/1.1/DTD/svg11.dtd">
<svg version="1.1" xmlns="http://www.w3.org/2000/svg" xmlns:xlink="http://www.w3.org/1999/xlink" x="0px" y="0px" width="428px"
	 height="299px" viewBox="0 0 428 299" enable-background="new 0 0 428 299" xml:space="preserve">
<g id="Grade" display="none">
</g>
<g id="Camada_1">
</g>
<g id="Ãrea_de_trabalho">
</g>
<g id="Linhas-guia">
</g>
<g id="Page_1">
	<g id="Camada_1_1_">
		
			<path fill-rule="evenodd" clip-rule="evenodd" fill="#CCCCCC" stroke="#CCCCCC" stroke-width="0.216" stroke-miterlimit="2.4142" d="
			M198.637,209.7c1.066,12.273,0.957,32.247-0.635,44.215c-0.808,6.075-2.556,7.327-6.199,10.029
			c-11.749,8.714-51.062,10.773-55.934-7.697c-1.823-0.055-0.329-6.042-2.085-5.867c-4.419,0.441-12.904-3.645-16.957-10.354
			c0.056-20.211,2.332-93.211-33.824-73.582c-8.404,4.563-12.672,10.8-16.463,20.153c-2.646,6.528-3.104,14.574-3.363,23.204
			c-0.302,10.078,2.238,21.104,2.577,33.185c0.152,5.422,1.025,6.798-2.988,11.393c-6.472,7.41-17.798,1.138-23.922-6.983
			c-2.794-3.704-3.767-9.164-4.105-13.646c-3.943-52.209-0.937-106.578,14.181-157.344c5.159-17.325,6.977-19.853,23.456-23.782
			c18.01-4.293,39.517-5.106,57.148-3.372c14.839-4.808,50.062-30.947,65.237-10.226c46.952-8.419,93.913-3.55,135.234,24.684
			c19.747,1.756,40.376,1.654,60.123,1.058c2.873-1.795,6.093-3.712,9.034-5.38c2.288-1.297,4.199-2.513,6.994-2.954
			c3.26-0.513,7.471-0.655,8.397,3.35c0.818,3.537,1.134,8.038,0.836,12.586c-0.289,4.39-3.715,10.354-9.04,10.734
			c-5.173-1.349-11.05-2.055-16.221-5.289c-18.337,0.47-29.621-0.47-47.958,0c2.957,3.15,2.78,5.238,4.973,9.437
			c14.322,27.431,0.857,73.99-10.968,84.362c-1.308,21.011,0.266,42.282,0.413,63.366c0.051,7.305,0.595,14.21-6.261,19.017
			c-10.096,7.08-27.704,8.684-40.457,3.36c-3.904-1.63-6.555-5.187-9.41-7.812c-2.715-0.072-5.039,0.67-7.059,0.109
			c-4.071-1.132-7.434-3.669-9.735-7.141c-1.427-2.153-2.121-4.666-3.307-7.426c0-9.874-0.353-13.753-0.353-23.626
			C239.542,214.226,219.089,215.402,198.637,209.7L198.637,209.7z"/>
		
			<path fill-rule="evenodd" clip-rule="evenodd" fill="#231F20" stroke="#231F20" stroke-width="0.216" stroke-miterlimit="2.4142" d="
			M190.174,204.058c1.066,12.273,0.957,32.247-0.635,44.215c-0.808,6.075-2.556,7.327-6.199,10.029
			c-11.749,8.714-51.062,10.773-55.934-7.697c-1.823-0.055-0.329-6.042-2.085-5.867c-4.419,0.441-12.904-3.645-16.957-10.354
			c0.056-20.211,2.332-93.211-33.824-73.582c-8.404,4.563-12.672,10.8-16.463,20.153c-2.646,6.528-3.104,14.574-3.363,23.204
			c-0.302,10.078,2.238,21.104,2.577,33.185c0.152,5.422,1.025,6.798-2.988,11.393c-6.472,7.41-17.798,1.138-23.922-6.983
			c-2.794-3.704-3.767-9.164-4.105-13.646c-3.943-52.209-0.937-106.578,14.181-157.344c5.159-17.325,6.977-19.853,23.456-23.782
			c18.01-4.293,39.517-5.106,57.148-3.372c14.839-4.808,50.062-30.947,65.237-10.226c46.952-8.419,93.913-3.55,135.234,24.684
			c19.747,1.756,40.376,1.654,60.123,1.058c2.873-1.795,6.093-3.712,9.034-5.38c2.288-1.297,4.199-2.513,6.994-2.954
			c3.26-0.513,7.471-0.655,8.397,3.35c0.818,3.537,1.134,8.038,0.836,12.586c-0.289,4.39-3.715,10.354-9.04,10.734
			c-5.173-1.349-11.05-2.055-16.221-5.289c-18.337,0.47-29.621-0.47-47.958,0c2.957,3.15,2.78,5.238,4.973,9.437
			c14.322,27.431,0.857,73.99-10.968,84.362c-1.308,21.011,0.266,42.282,0.413,63.366c0.051,7.305,0.595,14.21-6.261,19.017
			c-10.096,7.08-27.704,8.684-40.457,3.36c-3.904-1.63-6.555-5.187-9.41-7.812c-2.715-0.072-5.039,0.67-7.059,0.109
			c-4.071-1.132-7.434-3.669-9.735-7.141c-1.427-2.153-2.121-4.666-3.307-7.426c0-9.874-0.353-13.753-0.353-23.626
			C231.078,208.584,210.626,209.76,190.174,204.058L190.174,204.058z"/>
		
			<path fill-rule="evenodd" clip-rule="evenodd" fill="#6978AB" stroke="#231F20" stroke-width="0.216" stroke-miterlimit="2.4142" d="
			M256.292,203.529c4.467-0.47,8.933-1.234,13.4-2.645c2.785,11.683,2.163,25.601,1.939,38.789
			c-7.112,0.176-12.695-2.939-16.045-9.345C254.823,221.513,255.175,212.345,256.292,203.529L256.292,203.529z"/>
		
			<linearGradient id="SVGID_1_" gradientUnits="userSpaceOnUse" x1="-63.468" y1="450.0637" x2="170.9779" y2="739.5803" gradientTransform="matrix(1 0 0 1 161.5226 -449.1553)">
			<stop  offset="0" style="stop-color:#8A9FE0"/>
			<stop  offset="1" style="stop-color:#576490"/>
		</linearGradient>
		<path fill-rule="evenodd" clip-rule="evenodd" fill="url(#SVGID_1_)" d="M51.237,242.142c-3.164-20.802-6.403-57.554,8.404-75.002
			c1.323-1.559,2.425-3.24,3.827-4.563c23.469-22.138,43.925-3.107,49.479,21.381c1.175,15.516,1.41,31.031,0.705,46.547
			c3.056,5.642,7.993,8.463,14.81,8.463c2.141,4.49,1.608,7.785,4.012,10.721c10.418,12.722,25.839,13.138,38.132,9.77
			c4.915-1.346,7.983-4.414,12.866-6.386c3.292-21.158,2.821-39.73-1.411-57.126c0-2.586-0.882-4.29-0.882-6.876
			c1.411,0.471,2.997,0.53,4.408,1.939c-2.844,10.365,36.1,17.469,81.458,4.937c0.485-1.815-0.385-4.052,0.736-4.694
			c1.577-0.903,3.153-1.102,4.73-0.595c0.235,3.291,0.294,6.583,0.529,9.874c1.107,0.425,10.018,0.269,10.579,0.176
			c-3.233,2.939-6.172,2.881-8.463,2.997c0.764,0-0.44,1.507,0.264,1.664c2.115,0.474,6.083-0.253,7.67,0.452
			c-3.072,1.834-6.571,0.8-8.639,2.821c0.47,11.049,0.764,22.804,1.234,33.852c15.714,9.347,32.163,11.056,46.723-2.116
			c2.476-25.704-0.331-45.105-1.41-66.294c-1.646-0.235-3.291-0.47-4.937-0.705c25.782-34.714,30.742-70.2,9.168-102.263
			c-0.235-1.411-1.176-2.821-1.411-4.232c18.807-0.705,38.143,1.234,56.95,0.529c5.23,1.911,10.461,3.439,15.692,4.408
			c5.541-1.979,6.53-17.329,1.073-15.649c-5.469,1.684-8.4,5.165-14.297,7.362c-21.628,0.021-45.549-0.886-67.176-0.882
			c-33.554-26.626-77.49-37.038-126.947-21.863c14.83,30.249,13.065,60.498,3.693,90.747c-1.243,4.012-19.837,15.844-4.608,2.938
			c15.428-13.075,5.786-104.123-13.191-104.264c-20.089-0.149-38.078,6.202-59.947,23.979c-2.977-3.133-2.713-1.861-1.411-6.347
			c-15.986-1.764-31.972,0.352-47.958,4.232c-8.934,0.941-15.046,4.937-18.337,13.4c-11.984,49.686-21.568,99.254-16.926,156.568
			c1.281,6.112,1.738,12.225,4.937,18.337C43.847,249.699,48.425,246.982,51.237,242.142L51.237,242.142z"/>
		
			<path fill-rule="evenodd" clip-rule="evenodd" fill="#231F20" stroke="#231F20" stroke-width="0.216" stroke-miterlimit="2.4142" d="
			M84.987,69.165c-5.147-1.983-9.859-2.585-15.002-2.082c-1.078,0.105-1.528,0.162-2.196,1.355
			c-0.374,0.668-0.518,1.454-0.274,2.167c0.42,1.227,0.52,1.166,1.58,1.367c1.367,0.259,2.777-0.022,4.166-0.332
			c3.498-2.046,6.995-1.604,10.492-0.53C85.37,71.05,85.487,70.402,84.987,69.165L84.987,69.165z"/>
		
			<path fill-rule="evenodd" clip-rule="evenodd" fill="#231F20" stroke="#231F20" stroke-width="0.216" stroke-miterlimit="2.4142" d="
			M73.438,87.022c1.149-2.278,3.169-4.145,7.141-4.42c0.27-1.83,0.036-2.893-2.292-2.829c-3.511,2.076-6.357,4.185-8.126,7.217
			c-1.388,2.38-1.345,5.849-1.097,8.49c0.19,2.023,1.295,3.656,2.832,4.948c3.092,2.599,7.58,1.349,10.614-0.445
			c5.022-2.97,10.061-11.341,1.228-14.565c-2.786-1.017-7.18,0.186-10.308,2.174C73.26,87.699,73.244,87.406,73.438,87.022
			L73.438,87.022z"/>
		<path fill-rule="evenodd" clip-rule="evenodd" fill="#FFFFFF" d="M77.445,96.745c0.013,0.487,0.128,0.982,0.277,1.523
			c0.101,0.368,0.312,0.604,0.278,0.624c-0.844,0.5-1.874,0.716-2.781,0.301c-3.067-1.404-2.915-5.771-1.265-8.145
			c1.728-2.486,4.939-4.239,7.418-4.115c1.63,0.884,2.125,1.656,1.322,1.856c-0.688,0.172-1.014,0.253-1.467,0.483
			c-0.453,0.229-1.035,0.608-1.353,1.551c0.705,0.236,1.058,0.029,1.763,0.265c0,0.648,0,1.562,0,2.21
			c-0.672-0.297-1.435-0.516-2.253-0.257C78.021,93.474,77.411,95.467,77.445,96.745L77.445,96.745z"/>
		
			<path fill-rule="evenodd" clip-rule="evenodd" fill="#231F20" stroke="#231F20" stroke-width="0.216" stroke-miterlimit="2.4142" d="
			M83.327,154.337c18.198-5.542,26.902-19.794,23.626-37.026c-2.233-0.264-4.526-0.263-7.229-1.939
			c-0.118-0.94-0.235-1.881-0.353-2.821c5.81,2.807,14.075,3.698,13.047-5.289c0.823-0.235,1.998-0.294,2.821-0.529
			c-0.283,6.256-1.452,6.839-5.289,9.521c1.933,13.005-0.991,25.026-12.695,37.555c-0.59,1.645,0.175,4.172,0.529,5.818
			C93.555,154.913,88.5,154.331,83.327,154.337L83.327,154.337z"/>
		
			<path fill-rule="evenodd" clip-rule="evenodd" fill="#8093D0" stroke="#231F20" stroke-width="2.8346" stroke-miterlimit="2.4142" d="
			M306.894,249.695c-0.382-5.348-0.984-9.981-1.146-15.339c-0.368-12.222-9.639-14.886-10.138-2.642c-0.261,6.404,0,12.475,0,18.51
			C299.372,250.459,302.957,250.87,306.894,249.695L306.894,249.695z"/>
		
			<path fill-rule="evenodd" clip-rule="evenodd" fill="#8093D0" stroke="#231F20" stroke-width="2.8346" stroke-miterlimit="2.4142" d="
			M295.786,250.224c-0.764-6.494-1.633-12.048-1.172-18.585c0.798-11.294-9.91-23.202-10.628-2.216
			c-0.22,6.438-0.073,12.029,0.691,18.332C287.97,248.843,292.025,249.608,295.786,250.224L295.786,250.224z"/>
		
			<path fill-rule="evenodd" clip-rule="evenodd" fill="#8093D0" stroke="#231F20" stroke-width="2.8346" stroke-miterlimit="2.4142" d="
			M284.678,248.813l-1.547-23.981c-1.081-17.935-8.269-15.848-8.875-1.055c-0.287,6.994,0.284,10.814-0.333,17.808
			C277.274,243.877,280.859,248.402,284.678,248.813L284.678,248.813z"/>
		
			<path fill-rule="evenodd" clip-rule="evenodd" fill="#8093D0" stroke="#231F20" stroke-width="2.8346" stroke-miterlimit="2.4142" d="
			M161.611,261.155c0.297-6.583-0.233-10.638-0.882-16.75c-3.056-12.929-6.817-14.575-11.284-4.937c0,7.993,0,13.518,0,21.51
			C153.5,261.331,157.556,261.743,161.611,261.155L161.611,261.155z"/>
		
			<path fill-rule="evenodd" clip-rule="evenodd" fill="#8093D0" stroke="#231F20" stroke-width="2.8346" stroke-miterlimit="2.4142" d="
			M139.395,257.629c0.059-8.287,0.117-13.753,0.176-22.039c3.056-12.166,6.112-10.932,9.168,3.703
			c0.059,7.876,0.117,12.93,0.176,20.805C145.742,259.724,142.568,259.44,139.395,257.629L139.395,257.629z"/>
		
			<path fill-rule="evenodd" clip-rule="evenodd" fill="#8093D0" stroke="#231F20" stroke-width="2.8346" stroke-miterlimit="2.4142" d="
			M128.287,241.408c0.411-6.935,1.88-13.87,2.292-20.805c-2.821-13.693-5.876-16.103-9.168-7.229
			c-0.117,8.875-0.235,17.749-0.353,26.624C123.644,241.176,125.23,242.118,128.287,241.408L128.287,241.408z"/>
		
			<path fill-rule="evenodd" clip-rule="evenodd" fill="#8093D0" stroke="#231F20" stroke-width="2.8346" stroke-miterlimit="2.4142" d="
			M262.639,239.116c0.595-7.339-0.19-13.471-0.027-20.653c0.198-8.746,8.845-6.205,9.24,1.822c0.396,8.052,0.794,12.131,1.19,20.065
			C269.185,240.494,266.015,240.89,262.639,239.116L262.639,239.116z"/>
		
			<path fill-rule="evenodd" clip-rule="evenodd" fill="#B9C5EA" stroke="#231F20" stroke-width="2.8346" stroke-miterlimit="2.4142" d="
			M262.11,239.469c-0.235-5.407-0.119-11.872-0.353-17.279c0.528-7.428-4.625-18.359-6.612-6.171
			c-0.862,5.291-0.765,8.228-1.146,13.576C255.939,232.063,259.289,237.353,262.11,239.469L262.11,239.469z"/>
		
			<path fill-rule="evenodd" clip-rule="evenodd" fill="#231F20" stroke="#FFFFFF" stroke-width="2.8346" stroke-miterlimit="2.4142" d="
			M197.932,140.232c3.644-17.514,7.288-35.028,10.932-52.542c0.582-4.12,1.636-7.767,5.995-8.11c1.763,0,3.526,0,5.289,0
			c3.174,0,4.937,1.881,5.289,5.642c-0.353,2.586-0.705,5.172-1.058,7.758c0.117,3.174,2.115,4.937,5.995,5.289
			c5.289,0.235,10.579,0.47,15.868,0.705c7.935,0.469,13.225,3.878,12.695,13.753c-1.646,8.698-3.291,17.397-4.937,26.095
			c-0.823,5.055-3.057,7.877-6.7,9.168c-2.351-0.118-5.054,0.117-7.405,0c-4.119,0.237-6.475-1.289-4.937-6.7
			c1.528-6.817,3.409-15.398,4.937-22.216c0.597-8.129-2.463-8.591-5.642-9.168c-2.704-0.353-5.407,0-8.11-0.353
			c-4.004,0.579-5.529,4.461-6.7,8.816c-1.763,7.288-3.526,14.575-5.289,21.863c-0.823,3.996-1.646,6.582-4.584,7.758
			c-2.939,0-5.877,0-8.816,0C197.461,147.285,196.521,144.698,197.932,140.232L197.932,140.232z"/>
		
			<path fill-rule="evenodd" clip-rule="evenodd" fill="#231F20" stroke="#FFFFFF" stroke-width="2.8346" stroke-miterlimit="2.4142" d="
			M129.914,160.523c3.63-18.635,7.261-37.27,10.892-55.906c-0.353-3.644,2.938-6.465,6.347-6.347c11.049,0,22.098,0,33.147,0
			c7.052,0.353,12.779,3.186,15.603,8.794c2.338,4.644,3.036,7.868,2.681,13.204c-0.569,8.55-4.863,15.62-9.821,20.67
			c-5.642,4.232-10.579,6.583-16.221,7.053c-5.642,0.118-11.284,0.235-16.926,0.353c-3.262-0.264-6.499,0.599-7.262,3.174
			c-1.04,3.51-1.729,7.02-2.769,10.529c-0.427,1.442-1.852,2.425-3.722,3.223c-3.262,0.045-6.525,0.091-9.787,0.136
			C128.61,165.453,129.361,163.363,129.914,160.523L129.914,160.523z M153.026,128.53c0.905-4.929,2.061-10.425,2.942-14.745
			c1.292-2.591,3.169-4.474,6.347-4.232c3.746-0.076,6.82,0.044,10.095,1.297c6.385,2.441,8.094,9.312,5.421,15.277
			c-3.409,5.407-6.701,8.228-11.989,9.874c-2.616,0.558-4.959,0.934-7.229,0.705C152.387,136.079,151.946,134.412,153.026,128.53
			L153.026,128.53z"/>
		
			<path fill-rule="evenodd" clip-rule="evenodd" fill="#231F20" stroke="#FFFFFF" stroke-width="2.8346" stroke-miterlimit="2.4142" d="
			M255.803,160.523c3.63-18.635,7.261-37.27,10.892-55.906c-0.353-3.644,2.938-6.465,6.347-6.347c11.049,0,22.098,0,33.147,0
			c7.052,0.353,12.779,3.186,15.603,8.794c2.338,4.644,3.036,7.868,2.681,13.204c-0.569,8.55-4.863,15.62-9.821,20.67
			c-5.642,4.232-10.579,6.583-16.221,7.053c-5.642,0.118-11.284,0.235-16.926,0.353c-3.262-0.264-6.499,0.599-7.262,3.174
			c-1.04,3.51-1.729,7.02-2.769,10.529c-0.427,1.442-1.852,2.425-3.722,3.223c-3.262,0.045-6.525,0.091-9.787,0.136
			C254.499,165.453,255.249,163.363,255.803,160.523L255.803,160.523z M278.915,128.53c0.905-4.929,2.061-10.425,2.942-14.745
			c1.292-2.59,3.169-4.474,6.347-4.232c3.746-0.076,6.82,0.044,10.095,1.297c6.385,2.441,8.094,9.312,5.421,15.277
			c-3.409,5.407-6.701,8.228-11.989,9.874c-2.616,0.558-4.959,0.934-7.229,0.705C278.276,136.079,277.835,134.412,278.915,128.53
			L278.915,128.53z"/>
		<path fill-rule="evenodd" clip-rule="evenodd" fill="#EBEFFF" d="M42.422,245.316c-1.854-1.719-3.185-3.661-4.245-5.575
			c-2.076-3.747-2.229-6.138-2.475-10.378c-3.645-62.574-0.451-117.267,19.511-161.993c2.454-5.499,2.88-7.139,7.941-9.63
			c12.091-5.949,30.587-6.782,48.737-5.665c0.47-1.411,1.527-2.821,1.058-4.232c-14.576-1.458-29.857,0.22-44.431,3.526
			c-9.885,1.578-19.531,3.32-21.863,19.042C26.702,123.157,28.172,173.154,30.23,222.231c0.17,4.055,0.382,6.554,1.601,10.469
			C35.683,245.072,39.462,244.679,42.422,245.316L42.422,245.316z"/>
		<path fill-rule="evenodd" clip-rule="evenodd" fill="#EBEFFF" d="M118.942,237.558c0-13.047-1.058-26.095-1.058-39.142
			c-1.827-8.217-1.185-15.291-4.849-21.846c-3.718-6.654-6.524-10.05-9.962-14.475c10.344,16.104,13.635,39.26,9.874,69.468
			C115.063,233.562,116.827,235.56,118.942,237.558L118.942,237.558z"/>
		
			<path fill-rule="evenodd" clip-rule="evenodd" fill="none" stroke="#231F20" stroke-width="2.8346" stroke-miterlimit="2.4142" d="
			M110.303,231.534c0.529-9.932-0.353-17.749,0.176-27.681c3.586,0.541,7.465,2.215,9.168,7.934
			c-0.118,9.756-0.235,17.396-0.353,27.152C116.062,237.706,113.535,235.59,110.303,231.534L110.303,231.534z"/>
		<path fill-rule="evenodd" clip-rule="evenodd" fill="#EBEFFF" d="M138.69,255.895c-2.821-1.058-5.171-3.055-7.053-5.995
			c-0.47-23.274-0.94-46.547-1.411-69.821c1.176,1.176,2.351,2.351,3.526,3.526c0.823,4.937,1.176,9.874,1.058,14.81
			c0.353,0.941,0.705,1.881,1.058,2.821C135.407,219.457,137.201,237.676,138.69,255.895L138.69,255.895z"/>
		
			<path fill-rule="evenodd" clip-rule="evenodd" fill="none" stroke="#231F20" stroke-width="2.8346" stroke-miterlimit="2.4142" d="
			M130.05,251.987c0.059-7.875,0.117-15.751,0.176-23.626c3.764-6.735,7.292-10.461,9.168,6.876
			c-0.059,8.228-0.118,16.456-0.176,24.684C135.457,258.687,132.401,256.042,130.05,251.987L130.05,251.987z"/>
		
			<path fill-rule="evenodd" clip-rule="evenodd" fill="#231F20" stroke="#231F20" stroke-width="0.216" stroke-miterlimit="2.4142" d="
			M114.182,176.906c0.235-1.175-0.294-2.35-0.529-3.526c0.588,0.118,1.175,0.235,1.763,0.353c3.056,2.469,6.111,4.937,9.168,7.405
			c1.41-0.706,2.35-1.646,2.821-2.821c1.058,0,2.409,0.47,2.997,1.411c0.117,5.877-0.294,11.754-0.176,17.631
			c1.058,1.058,1.645,2.116,1.763,3.174c3.761-0.03,7.522,0.617,11.284,1.058c0.235,0.94,0.47,1.528,0.705,2.468
			c-4.585-0.354-9.053-0.59-12.695,0c0,0.823,0,1.822,0,2.645c2.35-0.353,5.641,0.117,9.874,0.705
			c0.117,0.823,0.235,1.117,0.353,1.939c-3.526-0.354-7.053-0.414-10.579,0.176c0.429,14.575,0.592,28.974,0,43.55
			c-1.176-2.704-3.409-5.407-4.584-8.11c2.567-18.572,2.092-37.498,0.882-56.068C124.251,183.84,119.208,180.079,114.182,176.906
			L114.182,176.906z"/>
		<path fill-rule="evenodd" clip-rule="evenodd" fill="#EBEFFF" d="M122.821,48.548c8.969-2.76,8.861-0.639,18.44-6.347
			c10.358-6.171,23.617-9.697,36.57-10.579c-4.467-2.35-10.579-2.82-16.926-1.411C142.92,35.501,131.4,41.379,122.821,48.548
			L122.821,48.548z"/>
		<path fill-rule="evenodd" clip-rule="evenodd" fill="#EBEFFF" d="M193.347,40.791c31.266-8.933,62.533-7.523,93.8,4.232
			C262,33.786,233.911,29.197,193.7,38.675C193.7,40.085,193.347,39.38,193.347,40.791L193.347,40.791z"/>
	</g>
</g>
</svg>
