<?xml version="1.0" encoding="utf-8"?>
<!-- Generator: Adobe Illustrator 17.0.0, SVG Export Plug-In . SVG Version: 6.00 Build 0)  -->
<!DOCTYPE svg PUBLIC "-//W3C//DTD SVG 1.1//EN" "http://www.w3.org/Graphics/SVG/1.1/DTD/svg11.dtd">
<svg version="1.1" id="Calque_1" xmlns="http://www.w3.org/2000/svg" xmlns:xlink="http://www.w3.org/1999/xlink" x="0px" y="0px"
	 width="24px" height="24px" viewBox="0 0 24 24" enable-background="new 0 0 24 24" xml:space="preserve">
<path fill="#968E80" d="M22,18.055v2.458C22,22.438,17.345,24,12,24c-5.344,0-10-1.562-10-3.487v-2.458
	c2.418,1.738,7.005,2.256,10,2.256C15.006,20.311,19.588,19.788,22,18.055z M12,14.646c-3.006,0-7.588-0.523-10-2.256v2.434
	c0,1.926,4.656,3.487,10,3.487c5.345,0,10-1.562,10-3.487V12.39C19.582,14.128,14.995,14.646,12,14.646z M12,0
	C6.656,0,2,1.562,2,3.488s4.656,3.487,10,3.487c5.345,0,10-1.562,10-3.487C22,1.562,17.345,0,12,0z M12,8.975
	c-3.006,0-7.588-0.523-10-2.256v2.44c0,1.926,4.656,3.487,10,3.487c5.345,0,10-1.562,10-3.487v-2.44
	C19.582,8.457,14.995,8.975,12,8.975z"/>
</svg>
