<?xml version="1.0" encoding="utf-8"?>
<!-- Generator: Adobe Illustrator 17.0.0, SVG Export Plug-In . SVG Version: 6.00 Build 0)  -->
<!DOCTYPE svg PUBLIC "-//W3C//DTD SVG 1.1//EN" "http://www.w3.org/Graphics/SVG/1.1/DTD/svg11.dtd">
<svg version="1.1" id="Calque_1" xmlns="http://www.w3.org/2000/svg" xmlns:xlink="http://www.w3.org/1999/xlink" x="0px" y="0px"
	 width="964px" height="976px" viewBox="120.5 112.5 964 976" enable-background="new 120.5 112.5 964 976" xml:space="preserve">
<g id="Layer_4">
</g>
<g id="Layer_3">
</g>
<g id="Layer_5">
	<g>
		<path fill="#FFE600" d="M602.565,386.812c-120.025,0-217.673,97.492-217.673,217.325s97.648,217.325,217.673,217.325
			c120.026,0,217.674-97.492,217.674-217.325S722.591,386.812,602.565,386.812z"/>
		<path fill="#FFE600" d="M560.565,981.471c0,25.116,18.9,45.666,42,45.666l0,0c23.1,0,42-20.55,42-45.666V849.759h-84V981.471z"/>
		<path fill="#FFE600" d="M644.565,211.666c0-25.116-18.9-45.666-42-45.666l0,0c-23.1,0-42,20.55-42,45.666v142.083h84V211.666z"/>
		<path fill="#FFE600" d="M984.902,558H853.191v84h131.711c25.117,0,45.666-18.9,45.666-42l0,0
			C1030.568,576.9,1010.019,558,984.902,558z"/>
		<path fill="#FFE600" d="M357.18,558H215.098c-25.117,0-45.666,18.9-45.666,42l0,0c0,23.1,20.55,42,45.666,42H357.18V558z"/>
		<path fill="#FFE600" d="M913.671,826.989l-97.698-88.335l-56.336,62.307l97.698,88.335c18.63,16.845,46.549,16.608,62.041-0.527
			l0,0C934.869,871.635,932.302,843.834,913.671,826.989z"/>
		<path fill="#FFE600" d="M286.329,373.011l105.39,95.291l56.336-62.307l-105.39-95.291c-18.63-16.845-46.549-16.608-62.041,0.527
			l0,0C265.131,328.365,267.698,356.166,286.329,373.011z"/>
		<path fill="#FFE600" d="M920.717,383.08c19.156-16.245,22.604-43.951,7.663-61.569l0,0c-14.941-17.618-42.838-18.741-61.993-2.495
			l-100.452,85.19l54.331,64.064L920.717,383.08z"/>
		<path fill="#FFE600" d="M279.283,816.92c-19.155,16.245-22.604,43.951-7.663,61.568l0,0c14.941,17.618,42.838,18.74,61.993,2.495
			l108.362-91.898l-54.331-64.064L279.283,816.92z"/>
	</g>
</g>
</svg>
